<svg
  width="38"
  height="40"
  viewBox="0 0 38 40"
  fill="none"
  xmlns="http://www.w3.org/2000/svg"
>
  <path
    d="M36 18.958C36 16.896 35.633 14.919 34.96 13.09C34.5 18.479 31.627 21.247 28.625 19.958C25.813 18.75 27.708 14.041 27.848 11.794C28.084 7.985 27.836 3.625 20.917 0C23.792 5.5 21.25 8.917 18.584 9.125C15.626 9.356 12.917 6.583 13.917 2.083C10.679 4.469 10.585 8.485 11.584 11.083C12.626 13.791 11.542 16.041 9.001 16.291C6.161 16.571 4.583 13.25 6.038 7.958C3.52 10.923 2 14.763 2 18.958C2 28.347 9.611 35.958 19 35.958C28.389 35.958 36 28.347 36 18.958Z"
    fill="url(#paint0_linear_460_1399)"></path>
  <g filter="url(#filter0_d_460_1399)">
    <path
      d="M29.394 23.957C29.542 27.041 26.833 28.25 25.375 27.666C23.269 26.823 23.834 25.375 23.292 22.375C22.75 19.375 20.667 17.292 17.584 16.375C19.834 22.708 16.337 25.042 14.504 25.459C12.632 25.885 10.751 25.458 10.536 21.452C8.352 23.626 7 26.634 7 29.958C7 30.326 7.023 30.688 7.055 31.048C10.125 34.082 14.342 35.958 19 35.958C23.658 35.958 27.875 34.082 30.945 31.048C30.977 30.688 31 30.326 31 29.958C31 27.771 30.416 25.722 29.394 23.957Z"
      fill="url(#paint1_linear_460_1399)"></path>
  </g>
  <defs>
    <filter
      id="filter0_d_460_1399"
      x="0"
      y="6.375"
      width="38"
      height="33.583"
      filterUnits="userSpaceOnUse"
      color-interpolation-filters="sRGB"
    >
      <feFlood flood-opacity="0" result="BackgroundImageFix"></feFlood>
      <feColorMatrix
        in="SourceAlpha"
        type="matrix"
        values="0 0 0 0 0 0 0 0 0 0 0 0 0 0 0 0 0 0 127 0"
        result="hardAlpha"></feColorMatrix>
      <feOffset dy="-3"></feOffset>
      <feGaussianBlur stdDeviation="3.5"></feGaussianBlur>
      <feColorMatrix
        type="matrix"
        values="0 0 0 0 0 0 0 0 0 0 0 0 0 0 0 0 0 0 0.48 0"></feColorMatrix>
      <feBlend
        mode="normal"
        in2="BackgroundImageFix"
        result="effect1_dropShadow_460_1399"></feBlend>
      <feBlend
        mode="normal"
        in="SourceGraphic"
        in2="effect1_dropShadow_460_1399"
        result="shape"></feBlend>
    </filter>
    <linearGradient
      id="paint0_linear_460_1399"
      x1="-2.5"
      y1="27.458"
      x2="43.5"
      y2="26.458"
      gradientUnits="userSpaceOnUse"
    >
      <stop offset="0.104167" stop-color="#7B22EB"></stop>
      <stop offset="0.255208" stop-color="#00A5EE"></stop>
      <stop offset="0.369792" stop-color="#00E895"></stop>
      <stop offset="0.473958" stop-color="#C0E918"></stop>
      <stop offset="0.572917" stop-color="#FFF900"></stop>
      <stop offset="0.682292" stop-color="#FFAA01"></stop>
      <stop offset="0.713542" stop-color="#FF8825"></stop>
      <stop offset="0.916667" stop-color="#F11822"></stop>
    </linearGradient>
    <linearGradient
      id="paint1_linear_460_1399"
      x1="32.5"
      y1="32.958"
      x2="7"
      y2="32.958"
      gradientUnits="userSpaceOnUse"
    >
      <stop offset="0.104167" stop-color="#7B22EB"></stop>
      <stop offset="0.255208" stop-color="#00A5EE"></stop>
      <stop offset="0.520833" stop-color="#00E895"></stop>
      <stop offset="0.625" stop-color="#C0E918"></stop>
      <stop offset="0.71875" stop-color="#FFF900"></stop>
      <stop offset="0.833333" stop-color="#FFAA01"></stop>
      <stop offset="0.932292" stop-color="#FF8825"></stop>
      <stop offset="1" stop-color="#F11822"></stop>
    </linearGradient>
  </defs>
</svg>
