<svg viewBox="0 0 1024 717" xmlns="http://www.w3.org/2000/svg">
  <mask id="b" x="0" y="0" width="1024" height="717">
    <path fill="url(#a)" d="M0 0h1024v717H0z" />
  </mask>
  <path fill="#111A20" d="M0 0h1024v717H0z" />
  <g style="transform-origin:center center" stroke="#1c2c35" stroke-width=".307" mask="url(#b)">
    <path fill="none" d="M0 0h26v26H0z" />
    <path fill="#1c2c35a7" d="M26 0h26v26H26z" />
    <path fill="none" d="M52 0h26v26H52zM78 0h26v26H78zM104 0h26v26h-26z" />
    <path fill="#1c2c35fa" d="M130 0h26v26h-26z" />
    <path fill="none" d="M156 0h26v26h-26z" />
    <path fill="#1c2c3599" d="M182 0h26v26h-26z" />
    <path fill="#1c2c3572" d="M208 0h26v26h-26z" />
    <path fill="none" d="M234 0h26v26h-26zM260 0h26v26h-26z" />
    <path fill="#1c2c35e5" d="M286 0h26v26h-26z" />
    <path fill="none"
      d="M312 0h26v26h-26zM338 0h26v26h-26zM364 0h26v26h-26zM390 0h26v26h-26zM416 0h26v26h-26zM442 0h26v26h-26zM468 0h26v26h-26z" />
    <path fill="#1c2c350d" d="M494 0h26v26h-26z" />
    <path fill="none" d="M520 0h26v26h-26zM546 0h26v26h-26z" />
    <path fill="#1c2c35bf" d="M572 0h26v26h-26z" />
    <path fill="none" d="M598 0h26v26h-26zM624 0h26v26h-26z" />
    <path fill="#1c2c3561" d="M650 0h26v26h-26z" />
    <path fill="#1c2c35aa" d="M676 0h26v26h-26z" />
    <path fill="none" d="M702 0h26v26h-26zM728 0h26v26h-26z" />
    <path fill="#1c2c35f5" d="M754 0h26v26h-26z" />
    <path fill="none" d="M780 0h26v26h-26zM806 0h26v26h-26zM832 0h26v26h-26z" />
    <path fill="#1c2c357f" d="M858 0h26v26h-26z" />
    <path fill="none"
      d="M884 0h26v26h-26zM910 0h26v26h-26zM936 0h26v26h-26zM962 0h26v26h-26zM988 0h26v26h-26zM1014 0h26v26h-26zM0 26h26v26H0zM26 26h26v26H26zM52 26h26v26H52zM78 26h26v26H78z" />
    <path fill="#1c2c350f" d="M104 26h26v26h-26z" />
    <path fill="#1c2c3553" d="M130 26h26v26h-26z" />
    <path fill="none" d="M156 26h26v26h-26zM182 26h26v26h-26z" />
    <path fill="#1c2c35ad" d="M208 26h26v26h-26z" />
    <path fill="none" d="M234 26h26v26h-26zM260 26h26v26h-26zM286 26h26v26h-26zM312 26h26v26h-26z" />
    <path fill="#1c2c3514" d="M338 26h26v26h-26z" />
    <path fill="none"
      d="M364 26h26v26h-26zM390 26h26v26h-26zM416 26h26v26h-26zM442 26h26v26h-26zM468 26h26v26h-26zM494 26h26v26h-26zM520 26h26v26h-26z" />
    <path fill="#1c2c35a8" d="M546 26h26v26h-26z" />
    <path fill="#1c2c3564" d="M572 26h26v26h-26z" />
    <path fill="#1c2c3550" d="M598 26h26v26h-26z" />
    <path fill="none" d="M624 26h26v26h-26zM650 26h26v26h-26z" />
    <path fill="#1c2c3513" d="M676 26h26v26h-26z" />
    <path fill="none" d="M702 26h26v26h-26zM728 26h26v26h-26zM754 26h26v26h-26zM780 26h26v26h-26z" />
    <path fill="#1c2c356b" d="M806 26h26v26h-26z" />
    <path fill="none" d="M832 26h26v26h-26zM858 26h26v26h-26zM884 26h26v26h-26z" />
    <path fill="#1c2c3501" d="M910 26h26v26h-26z" />
    <path fill="#1c2c3540" d="M936 26h26v26h-26z" />
    <path fill="none" d="M962 26h26v26h-26zM988 26h26v26h-26zM1014 26h26v26h-26z" />
    <path fill="#1c2c351a" d="M0 52h26v26H0z" />
    <path fill="#1c2c359b" d="M26 52h26v26H26z" />
    <path fill="#1c2c354d" d="M52 52h26v26H52z" />
    <path fill="#1c2c3513" d="M78 52h26v26H78z" />
    <path fill="#1c2c35bf" d="M104 52h26v26h-26z" />
    <path fill="#1c2c35d9" d="M130 52h26v26h-26z" />
    <path fill="none" d="M156 52h26v26h-26zM182 52h26v26h-26z" />
    <path fill="#1c2c35cb" d="M208 52h26v26h-26z" />
    <path fill="none" d="M234 52h26v26h-26zM260 52h26v26h-26zM286 52h26v26h-26z" />
    <path fill="#1c2c356c" d="M312 52h26v26h-26z" />
    <path fill="none" d="M338 52h26v26h-26z" />
    <path fill="#1c2c3504" d="M364 52h26v26h-26z" />
    <path fill="none" d="M390 52h26v26h-26zM416 52h26v26h-26z" />
    <path fill="#1c2c35df" d="M442 52h26v26h-26z" />
    <path fill="#1c2c353f" d="M468 52h26v26h-26z" />
    <path fill="none" d="M494 52h26v26h-26z" />
    <path fill="#1c2c35f7" d="M520 52h26v26h-26z" />
    <path fill="none" d="M546 52h26v26h-26z" />
    <path fill="#1c2c3594" d="M572 52h26v26h-26z" />
    <path fill="none" d="M598 52h26v26h-26zM624 52h26v26h-26z" />
    <path fill="#1c2c35a5" d="M650 52h26v26h-26z" />
    <path fill="none" d="M676 52h26v26h-26zM702 52h26v26h-26zM728 52h26v26h-26zM754 52h26v26h-26z" />
    <path fill="#1c2c35a7" d="M780 52h26v26h-26z" />
    <path fill="none" d="M806 52h26v26h-26z" />
    <path fill="#1c2c35ed" d="M832 52h26v26h-26z" />
    <path fill="none" d="M858 52h26v26h-26z" />
    <path fill="#1c2c352e" d="M884 52h26v26h-26z" />
    <path fill="none" d="M910 52h26v26h-26zM936 52h26v26h-26zM962 52h26v26h-26zM988 52h26v26h-26zM1014 52h26v26h-26z" />
    <path fill="#1c2c3583" d="M0 78h26v26H0z" />
    <path fill="#1c2c3571" d="M26 78h26v26H26z" />
    <path fill="#1c2c3548" d="M52 78h26v26H52z" />
    <path fill="none" d="M78 78h26v26H78zM104 78h26v26h-26zM130 78h26v26h-26zM156 78h26v26h-26z" />
    <path fill="#1c2c3545" d="M182 78h26v26h-26z" />
    <path fill="#1c2c35df" d="M208 78h26v26h-26z" />
    <path fill="#1c2c35e3" d="M234 78h26v26h-26z" />
    <path fill="none"
      d="M260 78h26v26h-26zM286 78h26v26h-26zM312 78h26v26h-26zM338 78h26v26h-26zM364 78h26v26h-26zM390 78h26v26h-26zM416 78h26v26h-26zM442 78h26v26h-26z" />
    <path fill="#1c2c3574" d="M468 78h26v26h-26z" />
    <path fill="#1c2c3597" d="M494 78h26v26h-26z" />
    <path fill="none" d="M520 78h26v26h-26z" />
    <path fill="#1c2c35b4" d="M546 78h26v26h-26z" />
    <path fill="none" d="M572 78h26v26h-26z" />
    <path fill="#1c2c35e5" d="M598 78h26v26h-26z" />
    <path fill="#1c2c3558" d="M624 78h26v26h-26z" />
    <path fill="#1c2c352a" d="M650 78h26v26h-26z" />
    <path fill="#1c2c351c" d="M676 78h26v26h-26z" />
    <path fill="none" d="M702 78h26v26h-26z" />
    <path fill="#1c2c35ac" d="M728 78h26v26h-26z" />
    <path fill="#1c2c35be" d="M754 78h26v26h-26z" />
    <path fill="none" d="M780 78h26v26h-26z" />
    <path fill="#1c2c350c" d="M806 78h26v26h-26z" />
    <path fill="#1c2c35ac" d="M832 78h26v26h-26z" />
    <path fill="none" d="M858 78h26v26h-26zM884 78h26v26h-26zM910 78h26v26h-26z" />
    <path fill="#1c2c35c9" d="M936 78h26v26h-26z" />
    <path fill="none"
      d="M962 78h26v26h-26zM988 78h26v26h-26zM1014 78h26v26h-26zM0 104h26v26H0zM26 104h26v26H26zM52 104h26v26H52zM78 104h26v26H78z" />
    <path fill="#1c2c3564" d="M104 104h26v26h-26z" />
    <path fill="none" d="M130 104h26v26h-26zM156 104h26v26h-26z" />
    <path fill="#1c2c35d0" d="M182 104h26v26h-26z" />
    <path fill="#1c2c3524" d="M208 104h26v26h-26z" />
    <path fill="none"
      d="M234 104h26v26h-26zM260 104h26v26h-26zM286 104h26v26h-26zM312 104h26v26h-26zM338 104h26v26h-26zM364 104h26v26h-26zM390 104h26v26h-26zM416 104h26v26h-26z" />
    <path fill="#1c2c35f5" d="M442 104h26v26h-26z" />
    <path fill="none" d="M468 104h26v26h-26z" />
    <path fill="#1c2c351d" d="M494 104h26v26h-26z" />
    <path fill="#1c2c35d4" d="M520 104h26v26h-26z" />
    <path fill="#1c2c35a0" d="M546 104h26v26h-26z" />
    <path fill="none" d="M572 104h26v26h-26z" />
    <path fill="#1c2c356b" d="M598 104h26v26h-26z" />
    <path fill="none" d="M624 104h26v26h-26zM650 104h26v26h-26z" />
    <path fill="#1c2c356c" d="M676 104h26v26h-26z" />
    <path fill="#1c2c35ea" d="M702 104h26v26h-26z" />
    <path fill="none" d="M728 104h26v26h-26z" />
    <path fill="#1c2c359c" d="M754 104h26v26h-26z" />
    <path fill="#1c2c35d4" d="M780 104h26v26h-26z" />
    <path fill="none" d="M806 104h26v26h-26zM832 104h26v26h-26z" />
    <path fill="#1c2c35c3" d="M858 104h26v26h-26z" />
    <path fill="none"
      d="M884 104h26v26h-26zM910 104h26v26h-26zM936 104h26v26h-26zM962 104h26v26h-26zM988 104h26v26h-26z" />
    <path fill="#1c2c35ba" d="M1014 104h26v26h-26z" />
    <path fill="none" d="M0 130h26v26H0zM26 130h26v26H26z" />
    <path fill="#1c2c3534" d="M52 130h26v26H52z" />
    <path fill="none" d="M78 130h26v26H78z" />
    <path fill="#1c2c35a2" d="M104 130h26v26h-26z" />
    <path fill="none" d="M130 130h26v26h-26z" />
    <path fill="#1c2c352c" d="M156 130h26v26h-26z" />
    <path fill="#1c2c3559" d="M182 130h26v26h-26z" />
    <path fill="none" d="M208 130h26v26h-26z" />
    <path fill="#1c2c3519" d="M234 130h26v26h-26z" />
    <path fill="none" d="M260 130h26v26h-26z" />
    <path fill="#1c2c3547" d="M286 130h26v26h-26z" />
    <path fill="#1c2c3536" d="M312 130h26v26h-26z" />
    <path fill="none" d="M338 130h26v26h-26zM364 130h26v26h-26zM390 130h26v26h-26z" />
    <path fill="#1c2c3545" d="M416 130h26v26h-26z" />
    <path fill="#1c2c3596" d="M442 130h26v26h-26z" />
    <path fill="#1c2c359a" d="M468 130h26v26h-26z" />
    <path fill="#1c2c35d3" d="M494 130h26v26h-26z" />
    <path fill="none" d="M520 130h26v26h-26z" />
    <path fill="#1c2c3572" d="M546 130h26v26h-26z" />
    <path fill="#1c2c354f" d="M572 130h26v26h-26z" />
    <path fill="none" d="M598 130h26v26h-26zM624 130h26v26h-26zM650 130h26v26h-26z" />
    <path fill="#1c2c3533" d="M676 130h26v26h-26z" />
    <path fill="#1c2c3540" d="M702 130h26v26h-26z" />
    <path fill="none" d="M728 130h26v26h-26z" />
    <path fill="#1c2c3584" d="M754 130h26v26h-26z" />
    <path fill="none" d="M780 130h26v26h-26zM806 130h26v26h-26z" />
    <path fill="#1c2c351a" d="M832 130h26v26h-26z" />
    <path fill="#1c2c3573" d="M858 130h26v26h-26z" />
    <path fill="#1c2c35a9" d="M884 130h26v26h-26z" />
    <path fill="#1c2c35e2" d="M910 130h26v26h-26z" />
    <path fill="none"
      d="M936 130h26v26h-26zM962 130h26v26h-26zM988 130h26v26h-26zM1014 130h26v26h-26zM0 156h26v26H0zM26 156h26v26H26zM52 156h26v26H52zM78 156h26v26H78z" />
    <path fill="#1c2c35cd" d="M104 156h26v26h-26z" />
    <path fill="none" d="M130 156h26v26h-26zM156 156h26v26h-26zM182 156h26v26h-26z" />
    <path fill="#1c2c35a1" d="M208 156h26v26h-26z" />
    <path fill="none"
      d="M234 156h26v26h-26zM260 156h26v26h-26zM286 156h26v26h-26zM312 156h26v26h-26zM338 156h26v26h-26zM364 156h26v26h-26zM390 156h26v26h-26zM416 156h26v26h-26z" />
    <path fill="#1c2c35de" d="M442 156h26v26h-26z" />
    <path fill="none" d="M468 156h26v26h-26zM494 156h26v26h-26zM520 156h26v26h-26zM546 156h26v26h-26z" />
    <path fill="#1c2c35c0" d="M572 156h26v26h-26z" />
    <path fill="none" d="M598 156h26v26h-26z" />
    <path fill="#1c2c358a" d="M624 156h26v26h-26z" />
    <path fill="#1c2c35e6" d="M650 156h26v26h-26z" />
    <path fill="#1c2c35a5" d="M676 156h26v26h-26z" />
    <path fill="none" d="M702 156h26v26h-26z" />
    <path fill="#1c2c35c5" d="M728 156h26v26h-26z" />
    <path fill="none"
      d="M754 156h26v26h-26zM780 156h26v26h-26zM806 156h26v26h-26zM832 156h26v26h-26zM858 156h26v26h-26z" />
    <path fill="#1c2c35c6" d="M884 156h26v26h-26z" />
    <path fill="#1c2c35f4" d="M910 156h26v26h-26z" />
    <path fill="none" d="M936 156h26v26h-26zM962 156h26v26h-26zM988 156h26v26h-26z" />
    <path fill="#1c2c35f5" d="M1014 156h26v26h-26z" />
    <path fill="none"
      d="M0 182h26v26H0zM26 182h26v26H26zM52 182h26v26H52zM78 182h26v26H78zM104 182h26v26h-26zM130 182h26v26h-26z" />
    <path fill="#1c2c35b5" d="M156 182h26v26h-26z" />
    <path fill="none" d="M182 182h26v26h-26zM208 182h26v26h-26z" />
    <path fill="#1c2c35cd" d="M234 182h26v26h-26z" />
    <path fill="none" d="M260 182h26v26h-26z" />
    <path fill="#1c2c3503" d="M286 182h26v26h-26z" />
    <path fill="none" d="M312 182h26v26h-26zM338 182h26v26h-26zM364 182h26v26h-26z" />
    <path fill="#1c2c3527" d="M390 182h26v26h-26z" />
    <path fill="none" d="M416 182h26v26h-26zM442 182h26v26h-26zM468 182h26v26h-26z" />
    <path fill="#1c2c35a7" d="M494 182h26v26h-26z" />
    <path fill="none" d="M520 182h26v26h-26zM546 182h26v26h-26z" />
    <path fill="#1c2c3508" d="M572 182h26v26h-26z" />
    <path fill="none" d="M598 182h26v26h-26z" />
    <path fill="#1c2c3586" d="M624 182h26v26h-26z" />
    <path fill="none" d="M650 182h26v26h-26zM676 182h26v26h-26z" />
    <path fill="#1c2c35af" d="M702 182h26v26h-26z" />
    <path fill="#1c2c35d9" d="M728 182h26v26h-26z" />
    <path fill="none"
      d="M754 182h26v26h-26zM780 182h26v26h-26zM806 182h26v26h-26zM832 182h26v26h-26zM858 182h26v26h-26zM884 182h26v26h-26z" />
    <path fill="#1c2c3501" d="M910 182h26v26h-26z" />
    <path fill="none" d="M936 182h26v26h-26zM962 182h26v26h-26z" />
    <path fill="#1c2c3549" d="M988 182h26v26h-26z" />
    <path fill="#1c2c35ea" d="M1014 182h26v26h-26z" />
    <path fill="none" d="M0 208h26v26H0zM26 208h26v26H26z" />
    <path fill="#1c2c3537" d="M52 208h26v26H52z" />
    <path fill="none"
      d="M78 208h26v26H78zM104 208h26v26h-26zM130 208h26v26h-26zM156 208h26v26h-26zM182 208h26v26h-26zM208 208h26v26h-26zM234 208h26v26h-26z" />
    <path fill="#1c2c351a" d="M260 208h26v26h-26z" />
    <path fill="none"
      d="M286 208h26v26h-26zM312 208h26v26h-26zM338 208h26v26h-26zM364 208h26v26h-26zM390 208h26v26h-26zM416 208h26v26h-26z" />
    <path fill="#1c2c35d1" d="M442 208h26v26h-26z" />
    <path fill="#1c2c3517" d="M468 208h26v26h-26z" />
    <path fill="none" d="M494 208h26v26h-26z" />
    <path fill="#1c2c350f" d="M520 208h26v26h-26z" />
    <path fill="none" d="M546 208h26v26h-26zM572 208h26v26h-26z" />
    <path fill="#1c2c350b" d="M598 208h26v26h-26z" />
    <path fill="none" d="M624 208h26v26h-26zM650 208h26v26h-26zM676 208h26v26h-26z" />
    <path fill="#1c2c35ee" d="M702 208h26v26h-26z" />
    <path fill="#1c2c35cf" d="M728 208h26v26h-26z" />
    <path fill="none" d="M754 208h26v26h-26zM780 208h26v26h-26z" />
    <path fill="#1c2c35ef" d="M806 208h26v26h-26z" />
    <path fill="none" d="M832 208h26v26h-26z" />
    <path fill="#1c2c35a0" d="M858 208h26v26h-26z" />
    <path fill="none" d="M884 208h26v26h-26z" />
    <path fill="#1c2c35c8" d="M910 208h26v26h-26z" />
    <path fill="none" d="M936 208h26v26h-26zM962 208h26v26h-26zM988 208h26v26h-26z" />
    <path fill="#1c2c359b" d="M1014 208h26v26h-26z" />
    <path fill="none" d="M0 234h26v26H0z" />
    <path fill="#1c2c3545" d="M26 234h26v26H26z" />
    <path fill="none"
      d="M52 234h26v26H52zM78 234h26v26H78zM104 234h26v26h-26zM130 234h26v26h-26zM156 234h26v26h-26zM182 234h26v26h-26zM208 234h26v26h-26zM234 234h26v26h-26zM260 234h26v26h-26zM286 234h26v26h-26z" />
    <path fill="#1c2c35b5" d="M312 234h26v26h-26z" />
    <path fill="none" d="M338 234h26v26h-26zM364 234h26v26h-26z" />
    <path fill="#1c2c350a" d="M390 234h26v26h-26z" />
    <path fill="none" d="M416 234h26v26h-26z" />
    <path fill="#1c2c3541" d="M442 234h26v26h-26z" />
    <path fill="none" d="M468 234h26v26h-26zM494 234h26v26h-26z" />
    <path fill="#1c2c3565" d="M520 234h26v26h-26z" />
    <path fill="none" d="M546 234h26v26h-26z" />
    <path fill="#1c2c3540" d="M572 234h26v26h-26z" />
    <path fill="none"
      d="M598 234h26v26h-26zM624 234h26v26h-26zM650 234h26v26h-26zM676 234h26v26h-26zM702 234h26v26h-26zM728 234h26v26h-26zM754 234h26v26h-26zM780 234h26v26h-26z" />
    <path fill="#1c2c352b" d="M806 234h26v26h-26z" />
    <path fill="#1c2c3565" d="M832 234h26v26h-26z" />
    <path fill="none" d="M858 234h26v26h-26zM884 234h26v26h-26zM910 234h26v26h-26z" />
    <path fill="#1c2c3576" d="M936 234h26v26h-26z" />
    <path fill="#1c2c3594" d="M962 234h26v26h-26z" />
    <path fill="none" d="M988 234h26v26h-26zM1014 234h26v26h-26z" />
    <path fill="#1c2c3593" d="M0 260h26v26H0z" />
    <path fill="none" d="M26 260h26v26H26zM52 260h26v26H52zM78 260h26v26H78z" />
    <path fill="#1c2c358e" d="M104 260h26v26h-26z" />
    <path fill="#1c2c35a0" d="M130 260h26v26h-26z" />
    <path fill="none" d="M156 260h26v26h-26zM182 260h26v26h-26zM208 260h26v26h-26zM234 260h26v26h-26z" />
    <path fill="#1c2c3516" d="M260 260h26v26h-26z" />
    <path fill="none" d="M286 260h26v26h-26z" />
    <path fill="#1c2c35fa" d="M312 260h26v26h-26z" />
    <path fill="none"
      d="M338 260h26v26h-26zM364 260h26v26h-26zM390 260h26v26h-26zM416 260h26v26h-26zM442 260h26v26h-26z" />
    <path fill="#1c2c3585" d="M468 260h26v26h-26z" />
    <path fill="none" d="M494 260h26v26h-26z" />
    <path fill="#1c2c353f" d="M520 260h26v26h-26z" />
    <path fill="none" d="M546 260h26v26h-26zM572 260h26v26h-26zM598 260h26v26h-26z" />
    <path fill="#1c2c359e" d="M624 260h26v26h-26z" />
    <path fill="none"
      d="M650 260h26v26h-26zM676 260h26v26h-26zM702 260h26v26h-26zM728 260h26v26h-26zM754 260h26v26h-26zM780 260h26v26h-26zM806 260h26v26h-26zM832 260h26v26h-26z" />
    <path fill="#1c2c353a" d="M858 260h26v26h-26z" />
    <path fill="#1c2c3502" d="M884 260h26v26h-26z" />
    <path fill="none" d="M910 260h26v26h-26z" />
    <path fill="#1c2c3586" d="M936 260h26v26h-26z" />
    <path fill="none" d="M962 260h26v26h-26z" />
    <path fill="#1c2c3505" d="M988 260h26v26h-26z" />
    <path fill="none" d="M1014 260h26v26h-26zM0 286h26v26H0zM26 286h26v26H26zM52 286h26v26H52zM78 286h26v26H78z" />
    <path fill="#1c2c3584" d="M104 286h26v26h-26z" />
    <path fill="#1c2c3558" d="M130 286h26v26h-26z" />
    <path fill="none" d="M156 286h26v26h-26zM182 286h26v26h-26zM208 286h26v26h-26zM234 286h26v26h-26z" />
    <path fill="#1c2c35eb" d="M260 286h26v26h-26z" />
    <path fill="none" d="M286 286h26v26h-26zM312 286h26v26h-26z" />
    <path fill="#1c2c35ac" d="M338 286h26v26h-26z" />
    <path fill="#1c2c3527" d="M364 286h26v26h-26z" />
    <path fill="none" d="M390 286h26v26h-26z" />
    <path fill="#1c2c35c5" d="M416 286h26v26h-26z" />
    <path fill="none" d="M442 286h26v26h-26zM468 286h26v26h-26zM494 286h26v26h-26zM520 286h26v26h-26z" />
    <path fill="#1c2c3561" d="M546 286h26v26h-26z" />
    <path fill="none" d="M572 286h26v26h-26zM598 286h26v26h-26z" />
    <path fill="#1c2c3564" d="M624 286h26v26h-26z" />
    <path fill="none" d="M650 286h26v26h-26zM676 286h26v26h-26zM702 286h26v26h-26z" />
    <path fill="#1c2c3511" d="M728 286h26v26h-26z" />
    <path fill="none" d="M754 286h26v26h-26zM780 286h26v26h-26zM806 286h26v26h-26zM832 286h26v26h-26z" />
    <path fill="#1c2c35bf" d="M858 286h26v26h-26z" />
    <path fill="none" d="M884 286h26v26h-26zM910 286h26v26h-26z" />
    <path fill="#1c2c3549" d="M936 286h26v26h-26z" />
    <path fill="#1c2c35d0" d="M962 286h26v26h-26z" />
    <path fill="none" d="M988 286h26v26h-26zM1014 286h26v26h-26z" />
    <path fill="#1c2c35a0" d="M0 312h26v26H0z" />
    <path fill="none" d="M26 312h26v26H26zM52 312h26v26H52zM78 312h26v26H78z" />
    <path fill="#1c2c35e0" d="M104 312h26v26h-26z" />
    <path fill="#1c2c3535" d="M130 312h26v26h-26z" />
    <path fill="none" d="M156 312h26v26h-26zM182 312h26v26h-26z" />
    <path fill="#1c2c3503" d="M208 312h26v26h-26z" />
    <path fill="none"
      d="M234 312h26v26h-26zM260 312h26v26h-26zM286 312h26v26h-26zM312 312h26v26h-26zM338 312h26v26h-26z" />
    <path fill="#1c2c35ba" d="M364 312h26v26h-26z" />
    <path fill="none" d="M390 312h26v26h-26zM416 312h26v26h-26zM442 312h26v26h-26z" />
    <path fill="#1c2c35ba" d="M468 312h26v26h-26z" />
    <path fill="none" d="M494 312h26v26h-26zM520 312h26v26h-26z" />
    <path fill="#1c2c35e7" d="M546 312h26v26h-26z" />
    <path fill="none" d="M572 312h26v26h-26z" />
    <path fill="#1c2c35f5" d="M598 312h26v26h-26z" />
    <path fill="none" d="M624 312h26v26h-26z" />
    <path fill="#1c2c3559" d="M650 312h26v26h-26z" />
    <path fill="none" d="M676 312h26v26h-26zM702 312h26v26h-26z" />
    <path fill="#1c2c35b7" d="M728 312h26v26h-26z" />
    <path fill="none" d="M754 312h26v26h-26zM780 312h26v26h-26z" />
    <path fill="#1c2c351b" d="M806 312h26v26h-26z" />
    <path fill="none" d="M832 312h26v26h-26zM858 312h26v26h-26zM884 312h26v26h-26z" />
    <path fill="#1c2c3585" d="M910 312h26v26h-26z" />
    <path fill="none" d="M936 312h26v26h-26zM962 312h26v26h-26zM988 312h26v26h-26z" />
    <path fill="#1c2c3588" d="M1014 312h26v26h-26z" />
    <path fill="none" d="M0 338h26v26H0zM26 338h26v26H26zM52 338h26v26H52z" />
    <path fill="#1c2c3592" d="M78 338h26v26H78z" />
    <path fill="none"
      d="M104 338h26v26h-26zM130 338h26v26h-26zM156 338h26v26h-26zM182 338h26v26h-26zM208 338h26v26h-26zM234 338h26v26h-26zM260 338h26v26h-26zM286 338h26v26h-26zM312 338h26v26h-26z" />
    <path fill="#1c2c3584" d="M338 338h26v26h-26z" />
    <path fill="none" d="M364 338h26v26h-26zM390 338h26v26h-26z" />
    <path fill="#1c2c3511" d="M416 338h26v26h-26z" />
    <path fill="#1c2c35c7" d="M442 338h26v26h-26z" />
    <path fill="#1c2c353b" d="M468 338h26v26h-26z" />
    <path fill="none"
      d="M494 338h26v26h-26zM520 338h26v26h-26zM546 338h26v26h-26zM572 338h26v26h-26zM598 338h26v26h-26zM624 338h26v26h-26z" />
    <path fill="#1c2c35e3" d="M650 338h26v26h-26z" />
    <path fill="none" d="M676 338h26v26h-26zM702 338h26v26h-26zM728 338h26v26h-26z" />
    <path fill="#1c2c35b7" d="M754 338h26v26h-26z" />
    <path fill="#1c2c354e" d="M780 338h26v26h-26z" />
    <path fill="none" d="M806 338h26v26h-26zM832 338h26v26h-26z" />
    <path fill="#1c2c356d" d="M858 338h26v26h-26z" />
    <path fill="none" d="M884 338h26v26h-26zM910 338h26v26h-26z" />
    <path fill="#1c2c3520" d="M936 338h26v26h-26z" />
    <path fill="none" d="M962 338h26v26h-26z" />
    <path fill="#1c2c3544" d="M988 338h26v26h-26z" />
    <path fill="none" d="M1014 338h26v26h-26z" />
    <path fill="#1c2c352b" d="M0 364h26v26H0z" />
    <path fill="none" d="M26 364h26v26H26zM52 364h26v26H52zM78 364h26v26H78zM104 364h26v26h-26z" />
    <path fill="#1c2c357e" d="M130 364h26v26h-26z" />
    <path fill="none" d="M156 364h26v26h-26z" />
    <path fill="#1c2c3530" d="M182 364h26v26h-26z" />
    <path fill="none" d="M208 364h26v26h-26z" />
    <path fill="#1c2c35d9" d="M234 364h26v26h-26z" />
    <path fill="none" d="M260 364h26v26h-26z" />
    <path fill="#1c2c35b6" d="M286 364h26v26h-26z" />
    <path fill="#1c2c3581" d="M312 364h26v26h-26z" />
    <path fill="none" d="M338 364h26v26h-26zM364 364h26v26h-26zM390 364h26v26h-26zM416 364h26v26h-26z" />
    <path fill="#1c2c356f" d="M442 364h26v26h-26z" />
    <path fill="none" d="M468 364h26v26h-26zM494 364h26v26h-26z" />
    <path fill="#1c2c354e" d="M520 364h26v26h-26z" />
    <path fill="none" d="M546 364h26v26h-26z" />
    <path fill="#1c2c35ae" d="M572 364h26v26h-26z" />
    <path fill="none" d="M598 364h26v26h-26z" />
    <path fill="#1c2c3502" d="M624 364h26v26h-26z" />
    <path fill="none"
      d="M650 364h26v26h-26zM676 364h26v26h-26zM702 364h26v26h-26zM728 364h26v26h-26zM754 364h26v26h-26zM780 364h26v26h-26z" />
    <path fill="#1c2c3547" d="M806 364h26v26h-26z" />
    <path fill="#1c2c3531" d="M832 364h26v26h-26z" />
    <path fill="none" d="M858 364h26v26h-26zM884 364h26v26h-26z" />
    <path fill="#1c2c35a0" d="M910 364h26v26h-26z" />
    <path fill="none"
      d="M936 364h26v26h-26zM962 364h26v26h-26zM988 364h26v26h-26zM1014 364h26v26h-26zM0 390h26v26H0zM26 390h26v26H26z" />
    <path fill="#1c2c35c2" d="M52 390h26v26H52z" />
    <path fill="none"
      d="M78 390h26v26H78zM104 390h26v26h-26zM130 390h26v26h-26zM156 390h26v26h-26zM182 390h26v26h-26zM208 390h26v26h-26z" />
    <path fill="#1c2c3592" d="M234 390h26v26h-26z" />
    <path fill="#1c2c356a" d="M260 390h26v26h-26z" />
    <path fill="none" d="M286 390h26v26h-26zM312 390h26v26h-26zM338 390h26v26h-26zM364 390h26v26h-26z" />
    <path fill="#1c2c35fd" d="M390 390h26v26h-26z" />
    <path fill="none" d="M416 390h26v26h-26z" />
    <path fill="#1c2c35c9" d="M442 390h26v26h-26z" />
    <path fill="#1c2c35e1" d="M468 390h26v26h-26z" />
    <path fill="none" d="M494 390h26v26h-26z" />
    <path fill="#1c2c35bf" d="M520 390h26v26h-26z" />
    <path fill="none" d="M546 390h26v26h-26zM572 390h26v26h-26zM598 390h26v26h-26z" />
    <path fill="#1c2c35db" d="M624 390h26v26h-26z" />
    <path fill="none" d="M650 390h26v26h-26z" />
    <path fill="#1c2c35a9" d="M676 390h26v26h-26z" />
    <path fill="none"
      d="M702 390h26v26h-26zM728 390h26v26h-26zM754 390h26v26h-26zM780 390h26v26h-26zM806 390h26v26h-26z" />
    <path fill="#1c2c3528" d="M832 390h26v26h-26z" />
    <path fill="#1c2c356a" d="M858 390h26v26h-26z" />
    <path fill="#1c2c35c6" d="M884 390h26v26h-26z" />
    <path fill="none"
      d="M910 390h26v26h-26zM936 390h26v26h-26zM962 390h26v26h-26zM988 390h26v26h-26zM1014 390h26v26h-26zM0 416h26v26H0z" />
    <path fill="#1c2c3508" d="M26 416h26v26H26z" />
    <path fill="none" d="M52 416h26v26H52z" />
    <path fill="#1c2c3526" d="M78 416h26v26H78z" />
    <path fill="#1c2c35e2" d="M104 416h26v26h-26z" />
    <path fill="none"
      d="M130 416h26v26h-26zM156 416h26v26h-26zM182 416h26v26h-26zM208 416h26v26h-26zM234 416h26v26h-26zM260 416h26v26h-26z" />
    <path fill="#1c2c3560" d="M286 416h26v26h-26z" />
    <path fill="none"
      d="M312 416h26v26h-26zM338 416h26v26h-26zM364 416h26v26h-26zM390 416h26v26h-26zM416 416h26v26h-26zM442 416h26v26h-26zM468 416h26v26h-26zM494 416h26v26h-26zM520 416h26v26h-26zM546 416h26v26h-26zM572 416h26v26h-26zM598 416h26v26h-26zM624 416h26v26h-26z" />
    <path fill="#1c2c351d" d="M650 416h26v26h-26z" />
    <path fill="none" d="M676 416h26v26h-26zM702 416h26v26h-26zM728 416h26v26h-26zM754 416h26v26h-26z" />
    <path fill="#1c2c35b0" d="M780 416h26v26h-26z" />
    <path fill="none" d="M806 416h26v26h-26z" />
    <path fill="#1c2c3520" d="M832 416h26v26h-26z" />
    <path fill="none" d="M858 416h26v26h-26z" />
    <path fill="#1c2c35a4" d="M884 416h26v26h-26z" />
    <path fill="none" d="M910 416h26v26h-26z" />
    <path fill="#1c2c35f0" d="M936 416h26v26h-26z" />
    <path fill="none" d="M962 416h26v26h-26z" />
    <path fill="#1c2c3570" d="M988 416h26v26h-26z" />
    <path fill="none" d="M1014 416h26v26h-26zM0 442h26v26H0zM26 442h26v26H26z" />
    <path fill="#1c2c3549" d="M52 442h26v26H52z" />
    <path fill="#1c2c3528" d="M78 442h26v26H78z" />
    <path fill="none" d="M104 442h26v26h-26zM130 442h26v26h-26z" />
    <path fill="#1c2c35ea" d="M156 442h26v26h-26z" />
    <path fill="none" d="M182 442h26v26h-26zM208 442h26v26h-26zM234 442h26v26h-26z" />
    <path fill="#1c2c3598" d="M260 442h26v26h-26z" />
    <path fill="none" d="M286 442h26v26h-26z" />
    <path fill="#1c2c3546" d="M312 442h26v26h-26z" />
    <path fill="none" d="M338 442h26v26h-26zM364 442h26v26h-26zM390 442h26v26h-26z" />
    <path fill="#1c2c35f3" d="M416 442h26v26h-26z" />
    <path fill="#1c2c3531" d="M442 442h26v26h-26z" />
    <path fill="none" d="M468 442h26v26h-26zM494 442h26v26h-26zM520 442h26v26h-26zM546 442h26v26h-26z" />
    <path fill="#1c2c35c9" d="M572 442h26v26h-26z" />
    <path fill="#1c2c35bb" d="M598 442h26v26h-26z" />
    <path fill="none" d="M624 442h26v26h-26z" />
    <path fill="#1c2c3553" d="M650 442h26v26h-26z" />
    <path fill="none" d="M676 442h26v26h-26zM702 442h26v26h-26z" />
    <path fill="#1c2c3514" d="M728 442h26v26h-26z" />
    <path fill="#1c2c35d0" d="M754 442h26v26h-26z" />
    <path fill="none" d="M780 442h26v26h-26zM806 442h26v26h-26z" />
    <path fill="#1c2c3528" d="M832 442h26v26h-26z" />
    <path fill="none"
      d="M858 442h26v26h-26zM884 442h26v26h-26zM910 442h26v26h-26zM936 442h26v26h-26zM962 442h26v26h-26zM988 442h26v26h-26z" />
    <path fill="#1c2c356e" d="M1014 442h26v26h-26z" />
    <path fill="none" d="M0 468h26v26H0z" />
    <path fill="#1c2c358e" d="M26 468h26v26H26z" />
    <path fill="none" d="M52 468h26v26H52zM78 468h26v26H78zM104 468h26v26h-26z" />
    <path fill="#1c2c3596" d="M130 468h26v26h-26z" />
    <path fill="none" d="M156 468h26v26h-26zM182 468h26v26h-26zM208 468h26v26h-26zM234 468h26v26h-26z" />
    <path fill="#1c2c356e" d="M260 468h26v26h-26z" />
    <path fill="none" d="M286 468h26v26h-26zM312 468h26v26h-26z" />
    <path fill="#1c2c3581" d="M338 468h26v26h-26z" />
    <path fill="#1c2c35c3" d="M364 468h26v26h-26z" />
    <path fill="none" d="M390 468h26v26h-26zM416 468h26v26h-26zM442 468h26v26h-26z" />
    <path fill="#1c2c354f" d="M468 468h26v26h-26z" />
    <path fill="#1c2c352e" d="M494 468h26v26h-26z" />
    <path fill="none" d="M520 468h26v26h-26zM546 468h26v26h-26zM572 468h26v26h-26z" />
    <path fill="#1c2c356d" d="M598 468h26v26h-26z" />
    <path fill="none" d="M624 468h26v26h-26zM650 468h26v26h-26z" />
    <path fill="#1c2c3555" d="M676 468h26v26h-26z" />
    <path fill="none" d="M702 468h26v26h-26z" />
    <path fill="#1c2c3521" d="M728 468h26v26h-26z" />
    <path fill="none" d="M754 468h26v26h-26zM780 468h26v26h-26zM806 468h26v26h-26z" />
    <path fill="#1c2c35ae" d="M832 468h26v26h-26z" />
    <path fill="none" d="M858 468h26v26h-26zM884 468h26v26h-26zM910 468h26v26h-26z" />
    <path fill="#1c2c351b" d="M936 468h26v26h-26z" />
    <path fill="#1c2c35ee" d="M962 468h26v26h-26z" />
    <path fill="none"
      d="M988 468h26v26h-26zM1014 468h26v26h-26zM0 494h26v26H0zM26 494h26v26H26zM52 494h26v26H52zM78 494h26v26H78zM104 494h26v26h-26z" />
    <path fill="#1c2c35cf" d="M130 494h26v26h-26z" />
    <path fill="none" d="M156 494h26v26h-26z" />
    <path fill="#1c2c35d6" d="M182 494h26v26h-26z" />
    <path fill="#1c2c3598" d="M208 494h26v26h-26z" />
    <path fill="#1c2c3501" d="M234 494h26v26h-26z" />
    <path fill="none" d="M260 494h26v26h-26z" />
    <path fill="#1c2c358f" d="M286 494h26v26h-26z" />
    <path fill="none"
      d="M312 494h26v26h-26zM338 494h26v26h-26zM364 494h26v26h-26zM390 494h26v26h-26zM416 494h26v26h-26zM442 494h26v26h-26z" />
    <path fill="#1c2c35dc" d="M468 494h26v26h-26z" />
    <path fill="#1c2c3511" d="M494 494h26v26h-26z" />
    <path fill="none" d="M520 494h26v26h-26zM546 494h26v26h-26zM572 494h26v26h-26zM598 494h26v26h-26z" />
    <path fill="#1c2c35b4" d="M624 494h26v26h-26z" />
    <path fill="none"
      d="M650 494h26v26h-26zM676 494h26v26h-26zM702 494h26v26h-26zM728 494h26v26h-26zM754 494h26v26h-26zM780 494h26v26h-26zM806 494h26v26h-26zM832 494h26v26h-26zM858 494h26v26h-26zM884 494h26v26h-26z" />
    <path fill="#1c2c355e" d="M910 494h26v26h-26z" />
    <path fill="#1c2c354a" d="M936 494h26v26h-26z" />
    <path fill="none"
      d="M962 494h26v26h-26zM988 494h26v26h-26zM1014 494h26v26h-26zM0 520h26v26H0zM26 520h26v26H26zM52 520h26v26H52z" />
    <path fill="#1c2c356c" d="M78 520h26v26H78z" />
    <path fill="#1c2c3554" d="M104 520h26v26h-26z" />
    <path fill="none" d="M130 520h26v26h-26zM156 520h26v26h-26z" />
    <path fill="#1c2c35dc" d="M182 520h26v26h-26z" />
    <path fill="none" d="M208 520h26v26h-26zM234 520h26v26h-26zM260 520h26v26h-26zM286 520h26v26h-26z" />
    <path fill="#1c2c35c4" d="M312 520h26v26h-26z" />
    <path fill="none" d="M338 520h26v26h-26zM364 520h26v26h-26z" />
    <path fill="#1c2c35d6" d="M390 520h26v26h-26z" />
    <path fill="none"
      d="M416 520h26v26h-26zM442 520h26v26h-26zM468 520h26v26h-26zM494 520h26v26h-26zM520 520h26v26h-26z" />
    <path fill="#1c2c35b7" d="M546 520h26v26h-26z" />
    <path fill="none"
      d="M572 520h26v26h-26zM598 520h26v26h-26zM624 520h26v26h-26zM650 520h26v26h-26zM676 520h26v26h-26z" />
    <path fill="#1c2c35ad" d="M702 520h26v26h-26z" />
    <path fill="none"
      d="M728 520h26v26h-26zM754 520h26v26h-26zM780 520h26v26h-26zM806 520h26v26h-26zM832 520h26v26h-26zM858 520h26v26h-26zM884 520h26v26h-26zM910 520h26v26h-26zM936 520h26v26h-26z" />
    <path fill="#1c2c3547" d="M962 520h26v26h-26z" />
    <path fill="none" d="M988 520h26v26h-26zM1014 520h26v26h-26zM0 546h26v26H0z" />
    <path fill="#1c2c353b" d="M26 546h26v26H26z" />
    <path fill="none" d="M52 546h26v26H52zM78 546h26v26H78z" />
    <path fill="#1c2c35e4" d="M104 546h26v26h-26z" />
    <path fill="none" d="M130 546h26v26h-26zM156 546h26v26h-26z" />
    <path fill="#1c2c3535" d="M182 546h26v26h-26z" />
    <path fill="none" d="M208 546h26v26h-26zM234 546h26v26h-26z" />
    <path fill="#1c2c35bd" d="M260 546h26v26h-26z" />
    <path fill="none" d="M286 546h26v26h-26zM312 546h26v26h-26z" />
    <path fill="#1c2c35f8" d="M338 546h26v26h-26z" />
    <path fill="none"
      d="M364 546h26v26h-26zM390 546h26v26h-26zM416 546h26v26h-26zM442 546h26v26h-26zM468 546h26v26h-26zM494 546h26v26h-26zM520 546h26v26h-26zM546 546h26v26h-26zM572 546h26v26h-26zM598 546h26v26h-26z" />
    <path fill="#1c2c35c6" d="M624 546h26v26h-26z" />
    <path fill="none" d="M650 546h26v26h-26z" />
    <path fill="#1c2c35af" d="M676 546h26v26h-26z" />
    <path fill="none" d="M702 546h26v26h-26zM728 546h26v26h-26zM754 546h26v26h-26z" />
    <path fill="#1c2c3550" d="M780 546h26v26h-26z" />
    <path fill="none" d="M806 546h26v26h-26zM832 546h26v26h-26z" />
    <path fill="#1c2c3579" d="M858 546h26v26h-26z" />
    <path fill="none" d="M884 546h26v26h-26z" />
    <path fill="#1c2c35a2" d="M910 546h26v26h-26z" />
    <path fill="#1c2c3518" d="M936 546h26v26h-26z" />
    <path fill="none" d="M962 546h26v26h-26zM988 546h26v26h-26zM1014 546h26v26h-26z" />
    <path fill="#1c2c35b1" d="M0 572h26v26H0z" />
    <path fill="none" d="M26 572h26v26H26zM52 572h26v26H52zM78 572h26v26H78zM104 572h26v26h-26zM130 572h26v26h-26z" />
    <path fill="#1c2c35d1" d="M156 572h26v26h-26z" />
    <path fill="#1c2c353e" d="M182 572h26v26h-26z" />
    <path fill="none" d="M208 572h26v26h-26zM234 572h26v26h-26z" />
    <path fill="#1c2c35cc" d="M260 572h26v26h-26z" />
    <path fill="none" d="M286 572h26v26h-26zM312 572h26v26h-26z" />
    <path fill="#1c2c35bd" d="M338 572h26v26h-26z" />
    <path fill="none" d="M364 572h26v26h-26zM390 572h26v26h-26z" />
    <path fill="#1c2c3539" d="M416 572h26v26h-26z" />
    <path fill="none" d="M442 572h26v26h-26z" />
    <path fill="#1c2c358b" d="M468 572h26v26h-26z" />
    <path fill="none" d="M494 572h26v26h-26z" />
    <path fill="#1c2c35be" d="M520 572h26v26h-26z" />
    <path fill="none"
      d="M546 572h26v26h-26zM572 572h26v26h-26zM598 572h26v26h-26zM624 572h26v26h-26zM650 572h26v26h-26zM676 572h26v26h-26zM702 572h26v26h-26zM728 572h26v26h-26zM754 572h26v26h-26zM780 572h26v26h-26z" />
    <path fill="#1c2c3540" d="M806 572h26v26h-26z" />
    <path fill="none" d="M832 572h26v26h-26z" />
    <path fill="#1c2c354c" d="M858 572h26v26h-26z" />
    <path fill="none"
      d="M884 572h26v26h-26zM910 572h26v26h-26zM936 572h26v26h-26zM962 572h26v26h-26zM988 572h26v26h-26zM1014 572h26v26h-26z" />
    <path fill="#1c2c3595" d="M0 598h26v26H0z" />
    <path fill="none" d="M26 598h26v26H26zM52 598h26v26H52zM78 598h26v26H78zM104 598h26v26h-26z" />
    <path fill="#1c2c351f" d="M130 598h26v26h-26z" />
    <path fill="none"
      d="M156 598h26v26h-26zM182 598h26v26h-26zM208 598h26v26h-26zM234 598h26v26h-26zM260 598h26v26h-26zM286 598h26v26h-26z" />
    <path fill="#1c2c3566" d="M312 598h26v26h-26z" />
    <path fill="none" d="M338 598h26v26h-26z" />
    <path fill="#1c2c35bc" d="M364 598h26v26h-26z" />
    <path fill="#1c2c35b7" d="M390 598h26v26h-26z" />
    <path fill="#1c2c35dd" d="M416 598h26v26h-26z" />
    <path fill="none" d="M442 598h26v26h-26zM468 598h26v26h-26zM494 598h26v26h-26z" />
    <path fill="#1c2c35f7" d="M520 598h26v26h-26z" />
    <path fill="none" d="M546 598h26v26h-26z" />
    <path fill="#1c2c35ce" d="M572 598h26v26h-26z" />
    <path fill="none"
      d="M598 598h26v26h-26zM624 598h26v26h-26zM650 598h26v26h-26zM676 598h26v26h-26zM702 598h26v26h-26zM728 598h26v26h-26zM754 598h26v26h-26zM780 598h26v26h-26zM806 598h26v26h-26zM832 598h26v26h-26z" />
    <path fill="#1c2c357d" d="M858 598h26v26h-26z" />
    <path fill="#1c2c352d" d="M884 598h26v26h-26z" />
    <path fill="none" d="M910 598h26v26h-26zM936 598h26v26h-26z" />
    <path fill="#1c2c3512" d="M962 598h26v26h-26z" />
    <path fill="#1c2c3582" d="M988 598h26v26h-26z" />
    <path fill="#1c2c35d4" d="M1014 598h26v26h-26z" />
    <path fill="none" d="M0 624h26v26H0zM26 624h26v26H26zM52 624h26v26H52zM78 624h26v26H78zM104 624h26v26h-26z" />
    <path fill="#1c2c35c9" d="M130 624h26v26h-26z" />
    <path fill="#1c2c351a" d="M156 624h26v26h-26z" />
    <path fill="none" d="M182 624h26v26h-26zM208 624h26v26h-26zM234 624h26v26h-26z" />
    <path fill="#1c2c3553" d="M260 624h26v26h-26z" />
    <path fill="none"
      d="M286 624h26v26h-26zM312 624h26v26h-26zM338 624h26v26h-26zM364 624h26v26h-26zM390 624h26v26h-26zM416 624h26v26h-26zM442 624h26v26h-26zM468 624h26v26h-26zM494 624h26v26h-26zM520 624h26v26h-26zM546 624h26v26h-26z" />
    <path fill="#1c2c3570" d="M572 624h26v26h-26z" />
    <path fill="#1c2c3565" d="M598 624h26v26h-26z" />
    <path fill="#1c2c3524" d="M624 624h26v26h-26z" />
    <path fill="none"
      d="M650 624h26v26h-26zM676 624h26v26h-26zM702 624h26v26h-26zM728 624h26v26h-26zM754 624h26v26h-26zM780 624h26v26h-26z" />
    <path fill="#1c2c357e" d="M806 624h26v26h-26z" />
    <path fill="none" d="M832 624h26v26h-26zM858 624h26v26h-26zM884 624h26v26h-26zM910 624h26v26h-26z" />
    <path fill="#1c2c3556" d="M936 624h26v26h-26z" />
    <path fill="#1c2c35be" d="M962 624h26v26h-26z" />
    <path fill="none" d="M988 624h26v26h-26z" />
    <path fill="#1c2c350b" d="M1014 624h26v26h-26z" />
    <path fill="#1c2c355d" d="M0 650h26v26H0z" />
    <path fill="none"
      d="M26 650h26v26H26zM52 650h26v26H52zM78 650h26v26H78zM104 650h26v26h-26zM130 650h26v26h-26zM156 650h26v26h-26zM182 650h26v26h-26z" />
    <path fill="#1c2c35d6" d="M208 650h26v26h-26z" />
    <path fill="none"
      d="M234 650h26v26h-26zM260 650h26v26h-26zM286 650h26v26h-26zM312 650h26v26h-26zM338 650h26v26h-26zM364 650h26v26h-26z" />
    <path fill="#1c2c353f" d="M390 650h26v26h-26z" />
    <path fill="none" d="M416 650h26v26h-26z" />
    <path fill="#1c2c351b" d="M442 650h26v26h-26z" />
    <path fill="none" d="M468 650h26v26h-26zM494 650h26v26h-26zM520 650h26v26h-26z" />
    <path fill="#1c2c35a8" d="M546 650h26v26h-26z" />
    <path fill="#1c2c352c" d="M572 650h26v26h-26z" />
    <path fill="none" d="M598 650h26v26h-26zM624 650h26v26h-26zM650 650h26v26h-26z" />
    <path fill="#1c2c35e4" d="M676 650h26v26h-26z" />
    <path fill="none" d="M702 650h26v26h-26z" />
    <path fill="#1c2c351f" d="M728 650h26v26h-26z" />
    <path fill="#1c2c3535" d="M754 650h26v26h-26z" />
    <path fill="#1c2c3505" d="M780 650h26v26h-26z" />
    <path fill="none"
      d="M806 650h26v26h-26zM832 650h26v26h-26zM858 650h26v26h-26zM884 650h26v26h-26zM910 650h26v26h-26zM936 650h26v26h-26z" />
    <path fill="#1c2c357e" d="M962 650h26v26h-26z" />
    <path fill="#1c2c35ee" d="M988 650h26v26h-26z" />
    <path fill="none" d="M1014 650h26v26h-26z" />
    <path fill="#1c2c352e" d="M0 676h26v26H0z" />
    <path fill="none"
      d="M26 676h26v26H26zM52 676h26v26H52zM78 676h26v26H78zM104 676h26v26h-26zM130 676h26v26h-26zM156 676h26v26h-26zM182 676h26v26h-26z" />
    <path fill="#1c2c358e" d="M208 676h26v26h-26z" />
    <path fill="none" d="M234 676h26v26h-26zM260 676h26v26h-26z" />
    <path fill="#1c2c3567" d="M286 676h26v26h-26z" />
    <path fill="none" d="M312 676h26v26h-26zM338 676h26v26h-26z" />
    <path fill="#1c2c35ce" d="M364 676h26v26h-26z" />
    <path fill="none" d="M390 676h26v26h-26z" />
    <path fill="#1c2c35ef" d="M416 676h26v26h-26z" />
    <path fill="none" d="M442 676h26v26h-26zM468 676h26v26h-26z" />
    <path fill="#1c2c35cf" d="M494 676h26v26h-26z" />
    <path fill="none" d="M520 676h26v26h-26zM546 676h26v26h-26zM572 676h26v26h-26z" />
    <path fill="#1c2c352a" d="M598 676h26v26h-26z" />
    <path fill="none" d="M624 676h26v26h-26zM650 676h26v26h-26zM676 676h26v26h-26z" />
    <path fill="#1c2c35f1" d="M702 676h26v26h-26z" />
    <path fill="#1c2c3513" d="M728 676h26v26h-26z" />
    <path fill="none" d="M754 676h26v26h-26zM780 676h26v26h-26z" />
    <path fill="#1c2c35e3" d="M806 676h26v26h-26z" />
    <path fill="none"
      d="M832 676h26v26h-26zM858 676h26v26h-26zM884 676h26v26h-26zM910 676h26v26h-26zM936 676h26v26h-26zM962 676h26v26h-26z" />
    <path fill="#1c2c35c0" d="M988 676h26v26h-26z" />
    <path fill="none" d="M1014 676h26v26h-26z" />
    <path fill="#1c2c350f" d="M0 702h26v26H0z" />
    <path fill="none" d="M26 702h26v26H26zM52 702h26v26H52zM78 702h26v26H78z" />
    <path fill="#1c2c3565" d="M104 702h26v26h-26z" />
    <path fill="none" d="M130 702h26v26h-26zM156 702h26v26h-26z" />
    <path fill="#1c2c35e0" d="M182 702h26v26h-26z" />
    <path fill="none" d="M208 702h26v26h-26zM234 702h26v26h-26zM260 702h26v26h-26zM286 702h26v26h-26z" />
    <path fill="#1c2c3587" d="M312 702h26v26h-26z" />
    <path fill="none"
      d="M338 702h26v26h-26zM364 702h26v26h-26zM390 702h26v26h-26zM416 702h26v26h-26zM442 702h26v26h-26zM468 702h26v26h-26zM494 702h26v26h-26z" />
    <path fill="#1c2c3502" d="M520 702h26v26h-26z" />
    <path fill="none" d="M546 702h26v26h-26zM572 702h26v26h-26zM598 702h26v26h-26zM624 702h26v26h-26z" />
    <path fill="#1c2c35c2" d="M650 702h26v26h-26z" />
    <path fill="none" d="M676 702h26v26h-26zM702 702h26v26h-26zM728 702h26v26h-26zM754 702h26v26h-26z" />
    <path fill="#1c2c352a" d="M780 702h26v26h-26z" />
    <path fill="none"
      d="M806 702h26v26h-26zM832 702h26v26h-26zM858 702h26v26h-26zM884 702h26v26h-26zM910 702h26v26h-26zM936 702h26v26h-26zM962 702h26v26h-26zM988 702h26v26h-26zM1014 702h26v26h-26z" />
  </g>
  <defs>
    <radialGradient id="a">
      <stop offset="0" stop-color="#fff" />
      <stop offset="1" stop-color="#fff" stop-opacity="0" />
    </radialGradient>
  </defs>
</svg>