<svg width="36" height="36" viewBox="0 0 36 36" fill="none" xmlns="http://www.w3.org/2000/svg">
  <g clip-path="url(#clip0_460_1409)">
    <path
      d="M35 19C35 16.938 34.633 14.961 33.96 13.132C33.5 18.521 30.627 21.289 27.625 20C24.813 18.792 26.708 14.083 26.848 11.836C27.084 8.02699 26.836 3.66699 19.917 0.0419922C22.792 5.54199 20.25 8.95899 17.584 9.16699C14.626 9.39799 11.917 6.62499 12.917 2.12499C9.679 4.51099 9.585 8.52699 10.584 11.125C11.626 13.833 10.542 16.083 8.001 16.333C5.161 16.613 3.583 13.292 5.038 7.99999C2.52 10.965 1 14.805 1 19C1 28.389 8.611 36 18 36C27.389 36 35 28.389 35 19Z"
      fill="url(#paint0_linear_460_1399)" />
    <path
      d="M28.394 23.999C28.542 27.083 25.833 28.292 24.375 27.708C22.269 26.865 22.834 25.417 22.292 22.417C21.75 19.417 19.667 17.334 16.584 16.417C18.834 22.75 15.337 25.084 13.504 25.501C11.632 25.927 9.751 25.5 9.536 21.494C7.352 23.668 6 26.676 6 30C6 30.368 6.023 30.73 6.055 31.09C9.125 34.124 13.342 36 18 36C22.658 36 26.875 34.124 29.945 31.09C29.977 30.73 30 30.368 30 30C30 27.813 29.416 25.764 28.394 23.999Z"
      fill="url(#paint1_linear_460_1399)" />
  </g>
  <defs>
    <clipPath id="clip0_460_1409">
      <rect width="36" height="36" fill="white" />
    </clipPath>
    <filter id="filter0_d_460_1399" x="0" y="6.375" width="38" height="33.583" filterUnits="userSpaceOnUse"
      color-interpolation-filters="sRGB">
      <feFlood flood-opacity="0" result="BackgroundImageFix" />
      <feColorMatrix in="SourceAlpha" type="matrix" values="0 0 0 0 0 0 0 0 0 0 0 0 0 0 0 0 0 0 127 0"
        result="hardAlpha" />
      <feOffset dy="-3" />
      <feGaussianBlur stdDeviation="3.5" />
      <feColorMatrix type="matrix" values="0 0 0 0 0 0 0 0 0 0 0 0 0 0 0 0 0 0 0.48 0" />
      <feBlend mode="normal" in2="BackgroundImageFix" result="effect1_dropShadow_460_1399" />
      <feBlend mode="normal" in="SourceGraphic" in2="effect1_dropShadow_460_1399" result="shape" />
    </filter>
    <linearGradient id="paint0_linear_460_1399" x1="-2.5" y1="27.458" x2="43.5" y2="26.458"
      gradientUnits="userSpaceOnUse">
      <stop offset="0.104167" stop-color="#7B22EB" />
      <stop offset="0.255208" stop-color="#00A5EE" />
      <stop offset="0.369792" stop-color="#00E895" />
      <stop offset="0.473958" stop-color="#C0E918" />
      <stop offset="0.572917" stop-color="#FFF900" />
      <stop offset="0.682292" stop-color="#FFAA01" />
      <stop offset="0.713542" stop-color="#FF8825" />
      <stop offset="0.916667" stop-color="#F11822" />
    </linearGradient>
    <linearGradient id="paint1_linear_460_1399" x1="32.5" y1="32.958" x2="7" y2="32.958" gradientUnits="userSpaceOnUse">
      <stop offset="0.104167" stop-color="#7B22EB" />
      <stop offset="0.255208" stop-color="#00A5EE" />
      <stop offset="0.520833" stop-color="#00E895" />
      <stop offset="0.625" stop-color="#C0E918" />
      <stop offset="0.71875" stop-color="#FFF900" />
      <stop offset="0.833333" stop-color="#FFAA01" />
      <stop offset="0.932292" stop-color="#FF8825" />
      <stop offset="1" stop-color="#F11822" />
    </linearGradient>
  </defs>
</svg>